<svg width="64" height="64" viewBox="0 0 64 64" fill="none" xmlns="http://www.w3.org/2000/svg">
<path d="M56.9335 6.8399L42.2233 26.2434L44.1146 27.5579C48.3307 22.1554 57.1752 10.7113 58.8249 8.15437C59.45 5.9965 57.8245 6.37895 56.9335 6.8399Z" stroke="black" stroke-width="3"/>
<path fill-rule="evenodd" clip-rule="evenodd" d="M32.2478 31.3546C23.0742 39.6062 14.5885 38.6069 6.32549 37.6338C5.60481 37.5489 4.88583 37.4642 4.16824 37.3859C3.86124 39.7689 5.90552 42.7923 9.05176 45.8507C16.9791 53.5567 31.902 61.4857 33.8372 59.9572C35.9851 58.2607 41.4857 48.0786 43.6925 41.6045L32.2478 31.3546ZM44.6558 37.4309C45.3949 34.3124 43.6706 22.8411 35.0146 28.7962L44.6558 37.4309Z" fill="url(#paint0_linear)"/>
<path d="M32.2478 31.3546L33.2486 30.2372L32.2457 29.339L31.2447 30.2394L32.2478 31.3546ZM6.32549 37.6338L6.15006 39.1235H6.15006L6.32549 37.6338ZM4.16824 37.3859L4.33097 35.8948L2.8685 35.7352L2.68053 37.1943L4.16824 37.3859ZM9.05176 45.8507L10.0973 44.7751H10.0973L9.05176 45.8507ZM33.8372 59.9572L32.9075 58.7801H32.9075L33.8372 59.9572ZM43.6925 41.6045L45.1123 42.0885L45.4325 41.1492L44.6933 40.4871L43.6925 41.6045ZM44.6558 37.4309L43.6551 38.5482L45.5338 40.2308L46.1154 37.7768L44.6558 37.4309ZM35.0146 28.7962L34.1644 27.5604L32.5933 28.6413L34.0139 29.9136L35.0146 28.7962ZM31.2447 30.2394C26.8738 34.171 22.7281 35.8554 18.7177 36.4708C14.6494 37.0951 10.6623 36.6341 6.50092 36.1441L6.15006 39.1235C10.2517 39.6065 14.6389 40.1318 19.1727 39.4361C23.7643 38.7315 28.4483 36.7898 33.251 32.4698L31.2447 30.2394ZM6.50092 36.1441C5.78132 36.0593 5.05598 35.9739 4.33097 35.8948L4.0055 38.8771C4.71568 38.9546 5.42831 39.0385 6.15006 39.1235L6.50092 36.1441ZM2.68053 37.1943C2.46441 38.8719 3.0886 40.5777 4.03053 42.1396C4.98769 43.7269 6.38312 45.3485 8.00622 46.9263L10.0973 44.7751C8.57416 43.2945 7.37433 41.8752 6.59955 40.5904C5.80952 39.2804 5.56507 38.283 5.65594 37.5776L2.68053 37.1943ZM8.00622 46.9263C12.0945 50.9004 17.927 54.8835 22.9637 57.6785C25.4845 59.0774 27.8556 60.2065 29.753 60.8922C30.695 61.2327 31.5777 61.4852 32.3329 61.5914C32.7105 61.6445 33.1077 61.6687 33.4916 61.6263C33.8638 61.5852 34.3441 61.4683 34.7669 61.1343L32.9075 58.7801C33.0884 58.6372 33.2254 58.6375 33.1625 58.6444C33.1113 58.65 32.9817 58.6531 32.7506 58.6206C32.2883 58.5556 31.6258 58.3792 30.7727 58.0709C29.08 57.4591 26.8621 56.4109 24.4194 55.0553C19.5289 52.3415 13.9363 48.507 10.0973 44.7751L8.00622 46.9263ZM34.7669 61.1343C35.5176 60.5415 36.3815 59.3913 37.2257 58.1092C38.1093 56.7673 39.0899 55.0927 40.0636 53.2833C42.0063 49.6735 43.9732 45.4303 45.1123 42.0885L42.2728 41.1206C41.2051 44.2528 39.3183 48.3378 37.4219 51.8617C36.4761 53.6191 35.541 55.2127 34.7201 56.4594C33.8598 57.7659 33.2308 58.5247 32.9075 58.7801L34.7669 61.1343ZM44.6933 40.4871L33.2486 30.2372L31.2471 32.472L42.6918 42.7219L44.6933 40.4871ZM46.1154 37.7768C46.3586 36.7507 46.3712 35.2466 46.1648 33.7268C45.9556 32.1867 45.4974 30.4468 44.6642 28.9728C43.8297 27.4966 42.5223 26.1328 40.5846 25.7264C38.6601 25.3229 36.5081 25.948 34.1644 27.5604L35.8648 30.032C37.8491 28.6668 39.1587 28.4927 39.9689 28.6626C40.7658 28.8297 41.4663 29.412 42.0525 30.4491C42.64 31.4884 43.0153 32.8288 43.1921 34.1305C43.3716 35.4525 43.3226 36.5518 43.1962 37.0849L46.1154 37.7768ZM34.0139 29.9136L43.6551 38.5482L45.6565 36.3135L36.0154 27.6788L34.0139 29.9136Z" fill="black"/>
<path d="M17.3637 50.6144L12.4911 47.3817L27.5573 42.3417L17.3637 50.6144Z" fill="black" stroke="black"/>
<path d="M26.7628 57.1181L23.2401 55.1854L35.3081 46.5401L26.7628 57.1181Z" fill="black" stroke="black"/>
<path fill-rule="evenodd" clip-rule="evenodd" d="M45.3435 37.5082L35.5849 29.1644C44.0863 23.2513 45.9455 34.0726 45.3435 37.5082Z" fill="black"/>
<circle cx="46.5" cy="57.5" r="5.5" fill="#2D9CDB"/>
<circle cx="57.5" cy="53.5" r="4.5" fill="#9B51E0"/>
<defs>
<linearGradient id="paint0_linear" x1="39" y1="37" x2="4" y2="60" gradientUnits="userSpaceOnUse">
<stop stop-color="#FFECB4"/>
<stop offset="1" stop-color="#FFC000"/>
</linearGradient>
</defs>
</svg>
